<svg width="137" height="24" viewBox="0 0 137 24" fill="none" xmlns="http://www.w3.org/2000/svg">
<path d="M16.0579 17.7381V24H5.3966C5.3966 21.0303 2.98045 18.6229 0 18.6229L6.21575 7.99999H12.5008L6.80269 17.7381H16.0584H16.0579Z" fill="black"/>
<path d="M9.58382 6.26189V0H20.2452C20.2452 2.9697 22.6613 5.37713 25.6418 5.37713L19.426 16H13.141L18.8391 6.26189H9.58337H9.58382Z" fill="black"/>
<path d="M41.0873 22.7028C39.2431 22.7028 37.5918 22.2762 36.1333 21.4231C34.6843 20.5699 33.5411 19.3417 32.7037 17.7386C31.8757 16.1354 31.4617 14.2088 31.4617 11.9587C31.4617 9.69925 31.8804 7.76794 32.7178 6.16477C33.5646 4.55222 34.7125 3.31936 36.1616 2.46621C37.62 1.61306 39.2619 1.18649 41.0873 1.18649C42.2446 1.18649 43.3267 1.35055 44.3335 1.67869C45.3497 2.00682 46.253 2.48965 47.0434 3.12717C47.8337 3.75532 48.4783 4.52878 48.9769 5.44756C49.485 6.35696 49.8191 7.39293 49.979 8.55547H46.1401C46.0366 7.91795 45.8343 7.35543 45.5332 6.86791C45.2415 6.3804 44.8745 5.96788 44.4323 5.63037C43.9995 5.28349 43.5055 5.02567 42.9503 4.85691C42.3952 4.67878 41.7977 4.58972 41.1579 4.58972C40.0099 4.58972 38.9937 4.87566 38.1093 5.44756C37.2248 6.01007 36.5332 6.84447 36.0345 7.95076C35.5359 9.04767 35.2865 10.3836 35.2865 11.9587C35.2865 13.5525 35.5359 14.8979 36.0345 15.9948C36.5426 17.0823 37.2342 17.9073 38.1093 18.4698C38.9937 19.023 40.0052 19.2996 41.1438 19.2996C41.7742 19.2996 42.3623 19.2199 42.908 19.0605C43.4537 18.8917 43.9477 18.6433 44.3899 18.3151C44.8416 17.9776 45.2133 17.5745 45.5049 17.1057C45.806 16.6276 46.0177 16.0791 46.1401 15.4604H49.979C49.8379 16.4635 49.5274 17.4057 49.0475 18.287C48.5771 19.1589 47.956 19.9277 47.1845 20.5933C46.4223 21.2496 45.5285 21.7653 44.5029 22.1403C43.4773 22.5153 42.3387 22.7028 41.0873 22.7028Z" fill="black"/>
<path d="M56.5211 22.745C55.5143 22.745 54.611 22.5668 53.8112 22.2106C53.0114 21.8449 52.381 21.3106 51.92 20.6074C51.4589 19.9043 51.2284 19.037 51.2284 18.0058C51.2284 17.1245 51.3931 16.3932 51.7224 15.8119C52.0517 15.2307 52.4986 14.7666 53.0632 14.4197C53.6372 14.0728 54.2817 13.8103 54.9968 13.6322C55.7119 13.4447 56.4505 13.3134 57.2127 13.2384C58.1442 13.1353 58.8969 13.0462 59.4709 12.9712C60.0448 12.8962 60.4589 12.7743 60.7129 12.6056C60.9764 12.4368 61.1081 12.1743 61.1081 11.8181V11.7478C61.1081 10.9884 60.8823 10.3977 60.4306 9.97582C59.979 9.55393 59.3203 9.34299 58.4547 9.34299C57.542 9.34299 56.8175 9.53987 56.2812 9.93363C55.7542 10.3274 55.3967 10.7915 55.2085 11.3259L51.7506 10.8337C52.0235 9.87738 52.4751 9.08048 53.1055 8.44296C53.736 7.79607 54.5028 7.31324 55.4061 6.99448C56.3188 6.66634 57.3256 6.50228 58.4265 6.50228C59.1792 6.50228 59.9319 6.59134 60.6847 6.76947C61.4374 6.93823 62.129 7.22886 62.7594 7.64137C63.3898 8.05389 63.8932 8.60703 64.2696 9.3008C64.646 9.99457 64.8342 10.8618 64.8342 11.9024V22.4215H61.2633V20.2558H61.1504C60.9246 20.6871 60.6047 21.0949 60.1907 21.4793C59.7861 21.8543 59.278 22.159 58.6664 22.3934C58.0642 22.6278 57.3491 22.745 56.5211 22.745ZM57.4667 20.0168C58.2195 20.0168 58.8687 19.8714 59.4144 19.5808C59.9602 19.2808 60.3836 18.887 60.6847 18.3995C60.9858 17.9026 61.1363 17.3636 61.1363 16.7823V14.94C61.014 15.0338 60.8164 15.1229 60.5435 15.2072C60.2707 15.2822 59.9602 15.3526 59.612 15.4182C59.2639 15.4838 58.9204 15.5401 58.5817 15.5869C58.2524 15.6338 57.9654 15.6713 57.7208 15.6994C57.1656 15.7744 56.6669 15.901 56.2247 16.0791C55.7919 16.2479 55.4484 16.4823 55.1944 16.7823C54.9403 17.0823 54.8133 17.4714 54.8133 17.9495C54.8133 18.6339 55.0627 19.1495 55.5613 19.4964C56.06 19.8433 56.6952 20.0168 57.4667 20.0168Z" fill="black"/>
<path d="M80.8184 6.69916L75.2011 22.4215H71.0798L65.4766 6.69916H69.4426L73.0981 18.3855H73.2675L76.8947 6.69916H80.8184Z" fill="black"/>
<path d="M82.0254 22.4215V6.69916H85.6244V9.34299H85.7938C86.0761 8.42421 86.5701 7.72106 87.2758 7.23355C87.9814 6.73666 88.7859 6.48821 89.6892 6.48821C89.8868 6.48821 90.1126 6.49759 90.3667 6.51634C90.6301 6.53509 90.8466 6.55853 91.0159 6.58665V9.98989C90.856 9.93363 90.6066 9.88676 90.2679 9.84926C89.9292 9.81176 89.6045 9.793 89.294 9.793C88.6072 9.793 87.9956 9.93832 87.4592 10.229C86.9229 10.5196 86.4995 10.918 86.189 11.4243C85.8879 11.9306 85.7373 12.5212 85.7373 13.1962V22.4215H82.0254Z" fill="black"/>
<path d="M98.3483 22.7309C96.8052 22.7309 95.4691 22.3934 94.34 21.7184C93.2109 21.0434 92.3358 20.0965 91.7148 18.8777C91.1032 17.6589 90.7974 16.2432 90.7974 14.6307C90.7974 13.0087 91.1032 11.5884 91.7148 10.3696C92.3358 9.14142 93.2109 8.18983 94.34 7.51481C95.4691 6.83979 96.8052 6.50228 98.3483 6.50228C99.8915 6.50228 101.228 6.83979 102.357 7.51481C103.486 8.18983 104.361 9.14142 104.982 10.3696C105.603 11.5884 105.913 13.0087 105.913 14.6307C105.913 16.2432 105.603 17.6589 104.982 18.8777C104.361 20.0965 103.486 21.0434 102.357 21.7184C101.228 22.3934 99.8915 22.7309 98.3483 22.7309ZM98.3483 19.7496C99.2046 19.7496 99.9103 19.5246 100.465 19.0745C101.021 18.6152 101.435 17.9964 101.707 17.2182C101.99 16.4401 102.131 15.5776 102.131 14.6307C102.131 13.665 101.99 12.7931 101.707 12.0149C101.435 11.2368 101.021 10.6227 100.465 10.1727C99.9103 9.71331 99.2046 9.48362 98.3483 9.48362C97.5109 9.48362 96.8099 9.71331 96.2454 10.1727C95.6808 10.6227 95.2574 11.2368 94.9751 12.0149C94.7023 12.7931 94.5658 13.665 94.5658 14.6307C94.5658 15.5776 94.7023 16.4401 94.9751 17.2182C95.2574 17.9964 95.6808 18.6152 96.2454 19.0745C96.8099 19.5246 97.5109 19.7496 98.3483 19.7496Z" fill="black"/>
<path d="M116.344 22.4215H112.265L119.689 1.46774H124.375L131.785 22.4215H127.72L122.103 5.771H121.933L116.344 22.4215ZM116.485 14.2088H127.565V17.2464H116.485V14.2088Z" fill="black"/>
<path d="M137 1.46774V22.4215H133.189V1.46774H137Z" fill="black"/>
</svg>
